# xmcd CD database file
#
# Track frame offsets:
#	150
#	18820
#	45030
#	70017
#	88152
#	104242
#	116235
#	135025
#	157480
#	179195
#	193345
#	210837
#	237180
#
# Disc length: 3457 seconds
#
# Revision: 3
# Processed by: cddbd v1.5.1PL0 Copyright (c) Steve Scherf et al.
# Submitted via: CDex 1.51
#
DISCID=b40d7f0d
DTITLE=Eva Cassidy - Live At Blues Alley
DYEAR=1997
DGENRE=Jazz
TTITLE0=Cheek To Cheek
TTITLE1=Stormy Monday
TTITLE2=Bridge Over Troubled Water
TTITLE3=Fine And Mellow
TTITLE4=People Get Ready
TTITLE5=Blue Skies
TTITLE6=Tall Trees In Georgia
TTITLE7=Fields Of Gold
TTITLE8=Autumn Leaves
TTITLE9=Honeysuckle Rose
TTITLE10=Take Me To The River
TTITLE11=What A Wonderful World
TTITLE12=Oh, Had I A Golden Thread
EXTD=YEAR: 1997
EXTT0=
EXTT1=
EXTT2=
EXTT3=
EXTT4=
EXTT5=
EXTT6=
EXTT7=
EXTT8=
EXTT9=
EXTT10=
EXTT11=
EXTT12=
PLAYORDER=
